HIERARCHY
ROOT mixamorig:Hips
{
	OFFSET -0.000008 104.274872 1.554316
	CHANNELS 6 Xposition Yposition Zposition Xrotation Yrotation Zrotation
	JOINT mixamorig:Spine
	{
		OFFSET -0.000005 10.181595 0.131519
		CHANNELS 6 Xposition Yposition Zposition Xrotation Yrotation Zrotation
		JOINT mixamorig:Spine1
		{
			OFFSET -0.000000 9.893959 -1.470707
			CHANNELS 6 Xposition Yposition Zposition Xrotation Yrotation Zrotation
			JOINT mixamorig:Spine2
			{
				OFFSET -0.000000 9.220757 -1.370641
				CHANNELS 6 Xposition Yposition Zposition Xrotation Yrotation Zrotation
				JOINT mixamorig:Neck
				{
					OFFSET 0.000001 16.740417 -2.049036
					CHANNELS 6 Xposition Yposition Zposition Xrotation Yrotation Zrotation
					JOINT mixamorig:Head
					{
						OFFSET 0.000000 9.617874 1.685006
						CHANNELS 6 Xposition Yposition Zposition Xrotation Yrotation Zrotation
						JOINT mixamorig:HeadTop_End
						{
							OFFSET 0.000002 22.037354 7.501101
							CHANNELS 6 Xposition Yposition Zposition Xrotation Yrotation Zrotation
							End Site
							{
								OFFSET 0.000168 2310.654297 -282.823242
							}
						}
					}
				}
				JOINT mixamorig:RightShoulder
				{
					OFFSET -4.569970 11.014908 -2.160885
					CHANNELS 6 Xposition Yposition Zposition Xrotation Yrotation Zrotation
					JOINT mixamorig:RightArm
					{
						OFFSET -10.592851 -0.524811 -2.232101
						CHANNELS 6 Xposition Yposition Zposition Xrotation Yrotation Zrotation
						JOINT mixamorig:RightForeArm
						{
							OFFSET -27.841511 0.000031 -0.000004
							CHANNELS 6 Xposition Yposition Zposition Xrotation Yrotation Zrotation
							JOINT mixamorig:RightHand
							{
								OFFSET -28.328831 -0.000015 0.000015
								CHANNELS 6 Xposition Yposition Zposition Xrotation Yrotation Zrotation
								JOINT mixamorig:RightHandThumb1
								{
									OFFSET -2.464806 -1.573990 2.681852
									CHANNELS 6 Xposition Yposition Zposition Xrotation Yrotation Zrotation
									JOINT mixamorig:RightHandThumb2
									{
										OFFSET -3.215179 -1.872803 1.924282
										CHANNELS 6 Xposition Yposition Zposition Xrotation Yrotation Zrotation
										JOINT mixamorig:RightHandThumb3
										{
											OFFSET -2.654831 -1.527969 1.512609
											CHANNELS 6 Xposition Yposition Zposition Xrotation Yrotation Zrotation
											JOINT mixamorig:RightHandThumb4
											{
												OFFSET -2.018814 -1.152008 1.108052
												CHANNELS 6 Xposition Yposition Zposition Xrotation Yrotation Zrotation
												End Site
												{
													OFFSET -188.809540 -114.533607 132.431396
												}
											}
										}
									}
								}
								JOINT mixamorig:RightHandIndex1
								{
									OFFSET -9.108284 -0.517868 2.259835
									CHANNELS 6 Xposition Yposition Zposition Xrotation Yrotation Zrotation
									JOINT mixamorig:RightHandIndex2
									{
										OFFSET -3.699989 0.000000 0.001215
										CHANNELS 6 Xposition Yposition Zposition Xrotation Yrotation Zrotation
										JOINT mixamorig:RightHandIndex3
										{
											OFFSET -2.850006 0.000031 -0.000522
											CHANNELS 6 Xposition Yposition Zposition Xrotation Yrotation Zrotation
											JOINT mixamorig:RightHandIndex4
											{
												OFFSET -2.772186 -0.000015 -0.000020
												CHANNELS 6 Xposition Yposition Zposition Xrotation Yrotation Zrotation
												End Site
												{
													OFFSET -277.218445 0.000000 -0.050231
												}
											}
										}
									}
								}
								JOINT mixamorig:RightHandMiddle1
								{
									OFFSET -9.532516 -0.000031 -0.000023
									CHANNELS 6 Xposition Yposition Zposition Xrotation Yrotation Zrotation
									JOINT mixamorig:RightHandMiddle2
									{
										OFFSET -3.700005 -0.000015 0.003713
										CHANNELS 6 Xposition Yposition Zposition Xrotation Yrotation Zrotation
										JOINT mixamorig:RightHandMiddle3
										{
											OFFSET -2.949974 0.000015 -0.002054
											CHANNELS 6 Xposition Yposition Zposition Xrotation Yrotation Zrotation
											JOINT mixamorig:RightHandMiddle4
											{
												OFFSET -2.946640 0.000000 -0.000156
												CHANNELS 6 Xposition Yposition Zposition Xrotation Yrotation Zrotation
												End Site
												{
													OFFSET -294.664337 0.000000 -0.113670
												}
											}
										}
									}
								}
								JOINT mixamorig:RightHandRing1
								{
									OFFSET -9.103600 -0.043076 -1.865134
									CHANNELS 6 Xposition Yposition Zposition Xrotation Yrotation Zrotation
									JOINT mixamorig:RightHandRing2
									{
										OFFSET -3.379288 0.000000 -0.001055
										CHANNELS 6 Xposition Yposition Zposition Xrotation Yrotation Zrotation
										JOINT mixamorig:RightHandRing3
										{
											OFFSET -2.889687 -0.000015 0.000379
											CHANNELS 6 Xposition Yposition Zposition Xrotation Yrotation Zrotation
											JOINT mixamorig:RightHandRing4
											{
												OFFSET -2.638809 -0.000015 0.000941
												CHANNELS 6 Xposition Yposition Zposition Xrotation Yrotation Zrotation
												End Site
												{
													OFFSET -263.880371 0.000000 0.516020
												}
											}
										}
									}
								}
								JOINT mixamorig:RightHandPinky1
								{
									OFFSET -8.076683 -0.486710 -3.806280
									CHANNELS 6 Xposition Yposition Zposition Xrotation Yrotation Zrotation
									JOINT mixamorig:RightHandPinky2
									{
										OFFSET -3.600014 -0.000015 -0.003747
										CHANNELS 6 Xposition Yposition Zposition Xrotation Yrotation Zrotation
										JOINT mixamorig:RightHandPinky3
										{
											OFFSET -2.099983 0.000000 -0.005739
											CHANNELS 6 Xposition Yposition Zposition Xrotation Yrotation Zrotation
											JOINT mixamorig:RightHandPinky4
											{
												OFFSET -2.115768 -0.000031 -0.003680
												CHANNELS 6 Xposition Yposition Zposition Xrotation Yrotation Zrotation
												End Site
												{
													OFFSET -211.577087 0.000000 -0.350686
												}
											}
										}
									}
								}
							}
						}
					}
				}
				JOINT mixamorig:LeftShoulder
				{
					OFFSET 4.570447 11.014725 -2.160855
					CHANNELS 6 Xposition Yposition Zposition Xrotation Yrotation Zrotation
					JOINT mixamorig:LeftArm
					{
						OFFSET 10.592371 -0.524597 -2.232119
						CHANNELS 6 Xposition Yposition Zposition Xrotation Yrotation Zrotation
						JOINT mixamorig:LeftForeArm
						{
							OFFSET 27.841532 -0.000031 0.000026
							CHANNELS 6 Xposition Yposition Zposition Xrotation Yrotation Zrotation
							JOINT mixamorig:LeftHand
							{
								OFFSET 28.328846 -0.000061 0.000022
								CHANNELS 6 Xposition Yposition Zposition Xrotation Yrotation Zrotation
								JOINT mixamorig:LeftHandThumb1
								{
									OFFSET 2.466141 -1.576172 2.681732
									CHANNELS 6 Xposition Yposition Zposition Xrotation Yrotation Zrotation
									JOINT mixamorig:LeftHandThumb2
									{
										OFFSET 3.217812 -1.872070 1.916482
										CHANNELS 6 Xposition Yposition Zposition Xrotation Yrotation Zrotation
										JOINT mixamorig:LeftHandThumb3
										{
											OFFSET 2.656029 -1.528778 1.514513
											CHANNELS 6 Xposition Yposition Zposition Xrotation Yrotation Zrotation
											JOINT mixamorig:LeftHandThumb4
											{
												OFFSET 2.020889 -1.154053 1.115139
												CHANNELS 6 Xposition Yposition Zposition Xrotation Yrotation Zrotation
												End Site
												{
													OFFSET 190.885437 -115.081749 130.048782
												}
											}
										}
									}
								}
								JOINT mixamorig:LeftHandIndex1
								{
									OFFSET 9.109314 -0.518021 2.259871
									CHANNELS 6 Xposition Yposition Zposition Xrotation Yrotation Zrotation
									JOINT mixamorig:LeftHandIndex2
									{
										OFFSET 3.699989 0.000000 -0.000322
										CHANNELS 6 Xposition Yposition Zposition Xrotation Yrotation Zrotation
										JOINT mixamorig:LeftHandIndex3
										{
											OFFSET 2.850006 0.000000 0.000352
											CHANNELS 6 Xposition Yposition Zposition Xrotation Yrotation Zrotation
											JOINT mixamorig:LeftHandIndex4
											{
												OFFSET 2.774864 -0.000031 -0.000027
												CHANNELS 6 Xposition Yposition Zposition Xrotation Yrotation Zrotation
												End Site
												{
													OFFSET 277.486267 0.000000 -0.009857
												}
											}
										}
									}
								}
								JOINT mixamorig:LeftHandMiddle1
								{
									OFFSET 9.533394 0.000061 0.000044
									CHANNELS 6 Xposition Yposition Zposition Xrotation Yrotation Zrotation
									JOINT mixamorig:LeftHandMiddle2
									{
										OFFSET 3.699989 -0.000015 -0.000231
										CHANNELS 6 Xposition Yposition Zposition Xrotation Yrotation Zrotation
										JOINT mixamorig:LeftHandMiddle3
										{
											OFFSET 2.949997 -0.000015 -0.000059
											CHANNELS 6 Xposition Yposition Zposition Xrotation Yrotation Zrotation
											JOINT mixamorig:LeftHandMiddle4
											{
												OFFSET 2.952896 0.000031 0.000063
												CHANNELS 6 Xposition Yposition Zposition Xrotation Yrotation Zrotation
												End Site
												{
													OFFSET 295.289337 0.000000 0.022810
												}
											}
										}
									}
								}
								JOINT mixamorig:LeftHandRing1
								{
									OFFSET 9.104523 -0.042999 -1.865074
									CHANNELS 6 Xposition Yposition Zposition Xrotation Yrotation Zrotation
									JOINT mixamorig:LeftHandRing2
									{
										OFFSET 3.150009 -0.000031 0.000043
										CHANNELS 6 Xposition Yposition Zposition Xrotation Yrotation Zrotation
										JOINT mixamorig:LeftHandRing3
										{
											OFFSET 2.949982 -0.000015 0.000040
											CHANNELS 6 Xposition Yposition Zposition Xrotation Yrotation Zrotation
											JOINT mixamorig:LeftHandRing4
											{
												OFFSET 2.644348 0.000000 0.000057
												CHANNELS 6 Xposition Yposition Zposition Xrotation Yrotation Zrotation
												End Site
												{
													OFFSET 264.434631 0.000000 0.012105
												}
											}
										}
									}
								}
								JOINT mixamorig:LeftHandPinky1
								{
									OFFSET 8.077789 -0.486847 -3.806259
									CHANNELS 6 Xposition Yposition Zposition Xrotation Yrotation Zrotation
									JOINT mixamorig:LeftHandPinky2
									{
										OFFSET 3.599953 0.000031 0.014727
										CHANNELS 6 Xposition Yposition Zposition Xrotation Yrotation Zrotation
										JOINT mixamorig:LeftHandPinky3
										{
											OFFSET 2.100021 0.000015 0.007705
											CHANNELS 6 Xposition Yposition Zposition Xrotation Yrotation Zrotation
											JOINT mixamorig:LeftHandPinky4
											{
												OFFSET 2.125504 0.000031 0.007517
												CHANNELS 6 Xposition Yposition Zposition Xrotation Yrotation Zrotation
												End Site
												{
													OFFSET 212.550781 0.000000 0.625752
												}
											}
										}
									}
								}
							}
						}
					}
				}
			}
		}
	}
	JOINT mixamorig:RightUpLeg
	{
		OFFSET -8.207787 -6.751648 -1.599560
		CHANNELS 6 Xposition Yposition Zposition Xrotation Yrotation Zrotation
		JOINT mixamorig:RightLeg
		{
			OFFSET -0.000002 -44.370117 0.345942
			CHANNELS 6 Xposition Yposition Zposition Xrotation Yrotation Zrotation
			JOINT mixamorig:RightFoot
			{
				OFFSET 0.000003 -44.423679 -3.043532
				CHANNELS 6 Xposition Yposition Zposition Xrotation Yrotation Zrotation
				JOINT mixamorig:RightToeBase
				{
					OFFSET -0.000002 -8.728671 10.710558
					CHANNELS 6 Xposition Yposition Zposition Xrotation Yrotation Zrotation
					JOINT mixamorig:RightToe_End
					{
						OFFSET -0.000001 -0.000679 9.278119
						CHANNELS 6 Xposition Yposition Zposition Xrotation Yrotation Zrotation
						End Site
						{
							OFFSET 0.000000 -0.067690 927.812134
						}
					}
				}
			}
		}
	}
	JOINT mixamorig:LeftUpLeg
	{
		OFFSET 8.207793 -6.751686 -1.599556
		CHANNELS 6 Xposition Yposition Zposition Xrotation Yrotation Zrotation
		JOINT mixamorig:LeftLeg
		{
			OFFSET -0.000004 -44.370014 0.346954
			CHANNELS 6 Xposition Yposition Zposition Xrotation Yrotation Zrotation
			JOINT mixamorig:LeftFoot
			{
				OFFSET -0.000001 -44.423672 -3.044401
				CHANNELS 6 Xposition Yposition Zposition Xrotation Yrotation Zrotation
				JOINT mixamorig:LeftToeBase
				{
					OFFSET -0.000002 -8.728669 10.710558
					CHANNELS 6 Xposition Yposition Zposition Xrotation Yrotation Zrotation
					JOINT mixamorig:LeftToe_End
					{
						OFFSET -0.000003 -0.000679 9.278133
						CHANNELS 6 Xposition Yposition Zposition Xrotation Yrotation Zrotation
						End Site
						{
							OFFSET 0.000000 -0.068021 927.813477
						}
					}
				}
			}
		}
	}
}
MOTION
Frames: 3
Frame Time: 0.033333
0.000006 104.270477 1.554256 0.000010 0.000003 -0.000113 -0.000005 10.181587 0.131522 0.000001 -0.000003 0.000084 -0.000000 9.893967 -1.470711 0.000001 0.000000 -0.000000 -0.000000 9.220802 -1.370642 0.000000 -0.000000 -0.000000 0.000001 16.740433 -2.049030 0.000000 -0.000000 -0.000000 0.000000 9.617859 1.685014 0.000000 0.000000 0.000000 0.000002 22.037384 7.501101 0.000000 -0.000000 0.000000 -4.569968 11.014880 -2.160881 0.000008 0.000001 -0.000038 -10.592878 -0.524732 -2.231943 66.624623 23.263394 -15.408374 -27.841532 0.000010 0.000550 -53.467028 117.360354 79.233398 -28.328827 0.000006 0.000035 -0.000318 -0.000046 0.000007 -2.464417 -1.573875 2.682351 -38.541887 -155.209820 10.109854 -3.215247 -1.872538 1.924619 150.682306 33.974252 24.886880 -2.654966 -1.527860 1.513076 149.117551 27.169188 -31.156437 -2.018822 -1.151988 1.108069 -0.000000 -0.000005 0.000000 -9.108389 -0.517563 2.260160 107.567112 15.801072 -21.522893 -3.700080 0.000314 0.001549 104.870322 13.154738 -17.021538 -2.850094 0.000371 -0.000209 104.167140 10.488154 -13.439237 -2.772156 -0.000000 -0.000020 -0.000000 0.000001 0.000000 -9.532612 0.000262 0.000286 102.359592 17.289213 -21.578033 -3.700071 0.000328 0.004034 103.083647 12.420941 -15.483701 -2.950056 0.000322 -0.001736 106.351721 11.210975 -14.926222 -2.946629 -0.000013 -0.000154 -0.000000 0.000001 0.000002 -9.103715 -0.042763 -1.864815 100.677446 18.547471 -22.229368 -3.379316 0.000332 -0.000778 102.253860 8.828647 -10.961646 -2.889757 0.000345 0.000685 108.567920 6.224932 -8.712729 -2.638801 -0.000015 0.000940 0.000000 -0.000001 -0.000000 -8.076777 -0.486403 -3.805990 93.560478 20.381491 -21.494906 -3.600050 0.000280 -0.003484 97.414986 9.216559 -10.079311 -2.100018 0.000329 -0.005457 100.844369 4.630878 -5.339196 -2.115758 -0.000042 -0.003681 -0.000001 0.000000 -0.000001 4.570446 11.014691 -2.160851 -0.000018 0.000010 -0.000021 10.592433 -0.524601 -2.232301 -0.420844 -61.069766 -0.248177 27.841749 -0.000082 -0.000077 224.109913 -68.311693 241.686162 28.328838 -0.000028 0.000024 0.000020 -0.000087 0.000001 2.466044 -1.576215 2.681855 24.576045 103.528845 -68.141068 3.217834 -1.872003 1.916526 284.349791 38.606579 29.101548 2.656075 -1.528731 1.514634 274.425335 24.816087 31.349482 2.020902 -1.154065 1.115148 0.000002 0.000003 0.000004 9.109148 -0.517702 2.260036 206.468354 -13.436807 -53.196361 3.700085 0.000197 -0.000420 -61.036428 -159.613816 -146.043856 2.850027 0.000134 0.000214 69.170897 -11.505033 7.945582 2.774909 -0.000032 -0.000020 0.000005 0.000001 0.000004 9.533217 0.000407 0.000206 202.404296 -11.167681 -52.533358 3.700066 0.000242 -0.000368 111.726493 -11.018655 16.189724 2.950006 0.000101 -0.000211 59.091040 -4.060682 2.303843 2.952874 -0.000015 0.000066 -0.000001 -0.000000 -0.000000 9.104330 -0.042711 -1.864941 197.535846 -11.084435 295.647361 3.150027 0.000289 -0.000101 102.615731 -1.359125 1.698857 2.949966 0.000100 -0.000125 52.177523 4.122335 -2.018516 2.644340 0.000015 0.000056 -0.000000 0.000002 0.000000 8.077618 -0.486898 -3.806174 180.354601 -10.400201 188.640905 3.599955 0.000268 0.014551 98.119144 1.115498 -0.806817 2.099987 0.000107 0.007554 49.618606 6.870336 -3.021623 2.125504 -0.000015 0.007523 -0.000000 -0.000001 0.000000 -8.207786 -6.751667 -1.599560 -0.077001 -0.000003 0.000080 -0.000002 -44.370110 0.345938 0.153719 -0.000000 -0.000000 0.000000 -44.423679 -3.043532 -0.076700 0.000000 -0.000002 -0.000006 -8.728667 10.710559 -0.000009 -0.000000 -0.000000 -0.000001 -0.000679 9.278123 0.000000 -0.000000 -0.000000 8.207792 -6.751710 -1.599556 -0.074518 -0.000003 0.000081 -0.000002 -44.370014 0.346960 0.148822 0.000002 0.000000 -0.000001 -44.423664 -3.044403 -0.074314 0.000000 -0.000002 -0.000004 -8.728671 10.710558 0.000007 -0.000000 -0.000000 0.000000 -0.000680 9.278137 -0.000000 0.000000 -0.000001 
0.000006 104.270477 1.554256 0.000010 0.000003 -0.000113 -0.000005 10.181587 0.131522 0.000001 -0.000003 0.000084 -0.000000 9.893967 -1.470711 0.000001 0.000000 -0.000000 -0.000000 9.220802 -1.370642 0.000000 -0.000000 -0.000000 0.000001 16.740433 -2.049030 0.000000 -0.000000 -0.000000 0.000000 9.617859 1.685014 0.000000 0.000000 0.000000 0.000002 22.037384 7.501101 0.000000 -0.000000 0.000000 -4.569968 11.014880 -2.160881 0.000008 0.000001 -0.000038 -10.592884 -0.524723 -2.231981 66.644833 18.277238 -12.074213 -27.841532 0.000011 0.000551 -53.517660 119.674627 81.893763 -28.328812 0.000007 0.000032 -0.000320 -0.000045 0.000006 -2.464404 -1.573833 2.682339 -41.486620 -157.232703 4.319291 -3.215251 -1.872542 1.924608 149.768112 33.804385 25.593294 -2.654947 -1.527891 1.513064 148.616488 27.424999 -29.455782 -2.018823 -1.151998 1.108067 -0.000003 0.000001 0.000004 -9.108384 -0.517552 2.260156 107.328459 15.261084 -20.708030 -3.700054 0.000309 0.001536 105.071177 12.916025 -16.773877 -2.850076 0.000372 -0.000207 104.283861 10.365896 -13.310800 -2.772161 -0.000000 -0.000022 -0.000000 0.000000 -0.000001 -9.532599 0.000259 0.000286 102.425319 16.648398 -20.813907 -3.700076 0.000320 0.004016 103.106343 12.534394 -15.631701 -2.950063 0.000338 -0.001760 105.952585 11.366226 -15.023901 -2.946619 0.000002 -0.000154 0.000000 -0.000000 0.000001 -9.103705 -0.042763 -1.864847 100.900848 18.122234 -21.806806 -3.379324 0.000321 -0.000775 102.216014 9.177301 -11.385164 -2.889748 0.000345 0.000705 108.278661 6.582375 -9.160072 -2.638814 -0.000013 0.000937 0.000000 0.000000 0.000002 -8.076770 -0.486397 -3.806003 93.613029 20.029139 -21.140889 -3.600049 0.000278 -0.003487 97.245180 9.363880 -10.215584 -2.100016 0.000324 -0.005457 100.526349 4.768275 -5.473817 -2.115776 -0.000055 -0.003675 0.000001 -0.000000 -0.000003 4.570446 11.014691 -2.160851 -0.000018 0.000010 -0.000021 10.592433 -0.524599 -2.232298 -1.326519 -60.774265 -0.777823 27.841759 -0.000076 -0.000089 217.658827 -68.820870 232.930570 28.328835 -0.000027 0.000020 0.000022 -0.000089 0.000002 2.466034 -1.576197 2.681884 -22.634953 130.583600 -26.847983 3.217847 -1.871996 1.916544 271.753993 38.920026 36.707667 2.656057 -1.528740 1.514637 283.962629 19.227867 25.321888 2.020882 -1.154066 1.115129 0.000001 0.000000 0.000009 9.109064 -0.517836 2.260028 199.579384 -23.057800 -99.550554 3.700076 0.000126 -0.000420 -78.062109 -151.433203 -145.108011 2.850041 0.000124 0.000203 64.919671 -11.363426 7.241404 2.774884 -0.000042 -0.000025 0.000001 -0.000001 -0.000002 9.533132 0.000256 0.000190 195.101799 -19.758670 -105.455286 3.700069 0.000166 -0.000354 97.585966 -16.955140 19.317097 2.950013 0.000101 -0.000207 60.618810 -1.794581 1.050609 2.952859 -0.000046 0.000066 -0.000000 0.000001 -0.000001 9.104259 -0.042892 -1.864959 190.750559 -16.185803 246.988984 3.150029 0.000236 -0.000117 96.275492 -4.001589 4.467135 2.949960 0.000130 -0.000139 56.489090 8.103696 -4.357802 2.644317 0.000037 0.000058 0.000000 -0.000000 0.000003 8.077532 -0.486789 -3.806162 184.055826 -10.500671 224.748713 3.599952 0.000302 0.014551 100.943168 0.557287 -0.166531 2.099958 0.000162 0.007522 60.585670 11.363963 -6.472902 2.125504 -0.000029 0.007516 0.000000 -0.000000 -0.000000 -8.207786 -6.751667 -1.599560 -0.077001 -0.000003 0.000080 -0.000002 -44.370110 0.345938 0.153719 -0.000000 -0.000000 0.000000 -44.423679 -3.043532 -0.076700 0.000000 -0.000002 -0.000006 -8.728667 10.710559 -0.000009 -0.000000 -0.000000 -0.000001 -0.000679 9.278123 0.000000 -0.000000 -0.000000 8.207792 -6.751710 -1.599556 -0.074518 -0.000003 0.000081 -0.000002 -44.370014 0.346960 0.148822 0.000002 0.000000 -0.000001 -44.423664 -3.044403 -0.074314 0.000000 -0.000002 -0.000004 -8.728671 10.710558 0.000007 -0.000000 -0.000000 0.000000 -0.000680 9.278137 -0.000000 0.000000 -0.000001 
0.000006 104.270477 1.554256 0.000010 0.000003 -0.000113 -0.000005 10.181587 0.131522 0.000001 -0.000003 0.000084 -0.000000 9.893967 -1.470711 0.000001 0.000000 -0.000000 -0.000000 9.220802 -1.370642 0.000000 -0.000000 -0.000000 0.000001 16.740433 -2.049030 0.000000 -0.000000 -0.000000 0.000000 9.617859 1.685014 0.000000 0.000000 0.000000 0.000002 22.037384 7.501101 0.000000 -0.000000 0.000000 -4.569968 11.014880 -2.160881 0.000008 0.000001 -0.000038 -10.592877 -0.524733 -2.231939 66.788288 23.819093 -15.830951 -27.841520 -0.000002 0.000544 -53.066321 119.095058 80.679841 -28.328835 0.000023 0.000029 -0.000322 -0.000044 0.000006 -2.464399 -1.573822 2.682341 -43.846877 -158.954102 -0.662875 -3.215244 -1.872504 1.924622 148.992121 33.861127 27.812341 -2.654965 -1.527844 1.513061 148.793294 27.446666 -29.028198 -2.018826 -1.152014 1.108071 -0.000004 -0.000001 0.000002 -9.108370 -0.517556 2.260155 107.172170 15.117365 -20.458145 -3.700049 0.000322 0.001547 104.908980 12.631654 -16.358754 -2.850085 0.000369 -0.000237 104.219043 9.980873 -12.803184 -2.772162 -0.000002 -0.000022 -0.000001 0.000001 -0.000001 -9.532586 0.000273 0.000280 102.456738 16.269668 -20.358523 -3.700096 0.000326 0.004014 102.667176 12.138781 -15.020076 -2.950054 0.000341 -0.001747 105.273822 11.081674 -14.472174 -2.946626 -0.000013 -0.000155 0.000001 -0.000001 0.000001 -9.103691 -0.042764 -1.864847 100.901196 18.221285 -21.925466 -3.379329 0.000340 -0.000780 101.920923 9.211065 -11.367248 -2.889753 0.000356 0.000679 107.975380 6.402472 -8.862438 -2.638822 -0.000003 0.000941 0.000000 0.000001 -0.000004 -8.076754 -0.486396 -3.805992 93.854230 19.903970 -21.095079 -3.600032 0.000283 -0.003484 96.860251 9.326320 -10.104975 -2.100020 0.000322 -0.005454 100.202645 4.678011 -5.334990 -2.115752 -0.000055 -0.003681 -0.000001 0.000000 -0.000004 4.570446 11.014691 -2.160851 -0.000018 0.000010 -0.000021 10.592436 -0.524592 -2.232302 -1.483956 -62.502795 -0.900502 27.841778 -0.000056 -0.000094 212.141646 -70.137368 224.624445 28.328840 -0.000045 0.000026 0.000021 -0.000089 -0.000001 2.465940 -1.576206 2.681855 -45.992079 129.449843 8.724785 3.217802 -1.872016 1.916532 268.499162 54.872818 44.269284 2.656049 -1.528769 1.514611 282.738795 26.799740 27.749368 2.020891 -1.154080 1.115137 -0.000002 0.000002 0.000002 9.109116 -0.517758 2.260057 214.079452 -19.550792 -58.674802 3.700094 0.000147 -0.000414 -71.073282 -153.927356 -144.052856 2.850058 0.000164 0.000222 73.538338 -12.232284 9.155014 2.774863 -0.000032 -0.000024 0.000000 -0.000002 -0.000002 9.533178 0.000295 0.000207 204.147114 -18.797891 -75.467129 3.700079 0.000178 -0.000348 101.359188 -21.607539 26.225818 2.950031 0.000135 -0.000231 71.453013 -6.926786 4.987176 2.952892 -0.000048 0.000061 0.000003 -0.000001 -0.000004 9.104284 -0.042841 -1.864942 195.512580 -18.202808 260.745067 3.150012 0.000215 -0.000121 89.217317 -7.471711 7.372312 2.949974 0.000117 -0.000144 58.471146 4.405574 -2.465870 2.644317 0.000031 0.000058 -0.000000 -0.000000 0.000000 8.077509 -0.486632 -3.806139 191.449943 -11.231739 271.101765 3.599946 0.000273 0.014530 92.247012 4.276241 -4.040321 2.099968 0.000151 0.007514 59.414327 11.466041 -6.381997 2.125511 -0.000000 0.007517 -0.000001 0.000000 -0.000000 -8.207786 -6.751667 -1.599560 -0.077001 -0.000003 0.000080 -0.000002 -44.370110 0.345938 0.153719 -0.000000 -0.000000 0.000000 -44.423679 -3.043532 -0.076700 0.000000 -0.000002 -0.000006 -8.728667 10.710559 -0.000009 -0.000000 -0.000000 -0.000001 -0.000679 9.278123 0.000000 -0.000000 -0.000000 8.207792 -6.751710 -1.599556 -0.074518 -0.000003 0.000081 -0.000002 -44.370014 0.346960 0.148822 0.000002 0.000000 -0.000001 -44.423664 -3.044403 -0.074314 0.000000 -0.000002 -0.000004 -8.728671 10.710558 0.000007 -0.000000 -0.000000 0.000000 -0.000680 9.278137 -0.000000 0.000000 -0.000001 
